<mxfile host="app.diagrams.net" modified="2022-04-19T07:56:16.614Z" agent="5.0 (Windows NT 6.1; WOW64) AppleWebKit/537.36 (KHTML, like Gecko) Chrome/70.0.3538.25 Safari/537.36 Core/1.70.3883.400 QQBrowser/10.8.4559.400" etag="cXkswGtIp5G9m-V3W7Xh" version="17.4.0" type="github">
  <diagram id="n7DuEQMFLMZEM_3gO0Fe" name="Page-1">
    <mxGraphModel dx="1662" dy="454" grid="0" gridSize="10" guides="1" tooltips="1" connect="1" arrows="1" fold="1" page="1" pageScale="1" pageWidth="827" pageHeight="1169" math="0" shadow="0">
      <root>
        <mxCell id="0" />
        <mxCell id="1" parent="0" />
        <mxCell id="TMJ--TbqOV-L6r4FokhD-25" value="" style="rounded=0;whiteSpace=wrap;html=1;dashed=1;" vertex="1" parent="1">
          <mxGeometry x="-9" y="502" width="438" height="97" as="geometry" />
        </mxCell>
        <mxCell id="TMJ--TbqOV-L6r4FokhD-8" style="edgeStyle=orthogonalEdgeStyle;rounded=0;orthogonalLoop=1;jettySize=auto;html=1;entryX=0.5;entryY=0;entryDx=0;entryDy=0;" edge="1" parent="1" source="TMJ--TbqOV-L6r4FokhD-1" target="TMJ--TbqOV-L6r4FokhD-3">
          <mxGeometry relative="1" as="geometry" />
        </mxCell>
        <mxCell id="TMJ--TbqOV-L6r4FokhD-10" value="与...通信" style="edgeLabel;html=1;align=center;verticalAlign=middle;resizable=0;points=[];" vertex="1" connectable="0" parent="TMJ--TbqOV-L6r4FokhD-8">
          <mxGeometry x="-0.2743" y="1" relative="1" as="geometry">
            <mxPoint as="offset" />
          </mxGeometry>
        </mxCell>
        <mxCell id="TMJ--TbqOV-L6r4FokhD-1" value="智能床" style="html=1;" vertex="1" parent="1">
          <mxGeometry x="233" y="171" width="110" height="50" as="geometry" />
        </mxCell>
        <mxCell id="TMJ--TbqOV-L6r4FokhD-2" value="OTA服务器" style="html=1;" vertex="1" parent="1">
          <mxGeometry x="233" y="388" width="110" height="50" as="geometry" />
        </mxCell>
        <mxCell id="TMJ--TbqOV-L6r4FokhD-9" style="edgeStyle=orthogonalEdgeStyle;rounded=0;orthogonalLoop=1;jettySize=auto;html=1;entryX=0.5;entryY=0;entryDx=0;entryDy=0;" edge="1" parent="1" source="TMJ--TbqOV-L6r4FokhD-3" target="TMJ--TbqOV-L6r4FokhD-2">
          <mxGeometry relative="1" as="geometry" />
        </mxCell>
        <mxCell id="TMJ--TbqOV-L6r4FokhD-3" value="路由器" style="html=1;" vertex="1" parent="1">
          <mxGeometry x="233" y="287" width="110" height="50" as="geometry" />
        </mxCell>
        <mxCell id="TMJ--TbqOV-L6r4FokhD-7" style="edgeStyle=orthogonalEdgeStyle;rounded=0;orthogonalLoop=1;jettySize=auto;html=1;entryX=0;entryY=0.5;entryDx=0;entryDy=0;" edge="1" parent="1" source="TMJ--TbqOV-L6r4FokhD-4" target="TMJ--TbqOV-L6r4FokhD-1">
          <mxGeometry relative="1" as="geometry" />
        </mxCell>
        <mxCell id="TMJ--TbqOV-L6r4FokhD-4" value="手机" style="html=1;" vertex="1" parent="1">
          <mxGeometry x="53" y="171" width="110" height="50" as="geometry" />
        </mxCell>
        <mxCell id="TMJ--TbqOV-L6r4FokhD-13" value="问题域结构化建模" style="text;html=1;align=center;verticalAlign=middle;resizable=0;points=[];autosize=1;strokeColor=none;fillColor=none;" vertex="1" parent="1">
          <mxGeometry x="127" y="126" width="106" height="18" as="geometry" />
        </mxCell>
        <mxCell id="TMJ--TbqOV-L6r4FokhD-14" style="edgeStyle=orthogonalEdgeStyle;rounded=0;orthogonalLoop=1;jettySize=auto;html=1;entryX=0.5;entryY=0;entryDx=0;entryDy=0;" edge="1" parent="1" source="TMJ--TbqOV-L6r4FokhD-16" target="TMJ--TbqOV-L6r4FokhD-19">
          <mxGeometry relative="1" as="geometry" />
        </mxCell>
        <mxCell id="TMJ--TbqOV-L6r4FokhD-15" value="与...通信" style="edgeLabel;html=1;align=center;verticalAlign=middle;resizable=0;points=[];" vertex="1" connectable="0" parent="TMJ--TbqOV-L6r4FokhD-14">
          <mxGeometry x="-0.2743" y="1" relative="1" as="geometry">
            <mxPoint x="-1" y="9" as="offset" />
          </mxGeometry>
        </mxCell>
        <mxCell id="TMJ--TbqOV-L6r4FokhD-27" style="edgeStyle=orthogonalEdgeStyle;rounded=1;orthogonalLoop=1;jettySize=auto;html=1;" edge="1" parent="1" source="TMJ--TbqOV-L6r4FokhD-16" target="TMJ--TbqOV-L6r4FokhD-23">
          <mxGeometry relative="1" as="geometry" />
        </mxCell>
        <mxCell id="TMJ--TbqOV-L6r4FokhD-16" value="语音版控制系统" style="html=1;" vertex="1" parent="1">
          <mxGeometry x="19" y="536" width="110" height="50" as="geometry" />
        </mxCell>
        <mxCell id="TMJ--TbqOV-L6r4FokhD-17" value="OTA服务器" style="html=1;" vertex="1" parent="1">
          <mxGeometry x="19" y="753" width="110" height="50" as="geometry" />
        </mxCell>
        <mxCell id="TMJ--TbqOV-L6r4FokhD-18" style="edgeStyle=orthogonalEdgeStyle;rounded=0;orthogonalLoop=1;jettySize=auto;html=1;entryX=0.5;entryY=0;entryDx=0;entryDy=0;" edge="1" parent="1" source="TMJ--TbqOV-L6r4FokhD-19" target="TMJ--TbqOV-L6r4FokhD-17">
          <mxGeometry relative="1" as="geometry" />
        </mxCell>
        <mxCell id="TMJ--TbqOV-L6r4FokhD-19" value="路由器" style="html=1;" vertex="1" parent="1">
          <mxGeometry x="19" y="652" width="110" height="50" as="geometry" />
        </mxCell>
        <mxCell id="TMJ--TbqOV-L6r4FokhD-20" style="edgeStyle=orthogonalEdgeStyle;rounded=0;orthogonalLoop=1;jettySize=auto;html=1;entryX=0;entryY=0.5;entryDx=0;entryDy=0;" edge="1" parent="1" source="TMJ--TbqOV-L6r4FokhD-21" target="TMJ--TbqOV-L6r4FokhD-16">
          <mxGeometry relative="1" as="geometry" />
        </mxCell>
        <mxCell id="TMJ--TbqOV-L6r4FokhD-21" value="手机" style="html=1;" vertex="1" parent="1">
          <mxGeometry x="-161" y="536" width="110" height="50" as="geometry" />
        </mxCell>
        <mxCell id="TMJ--TbqOV-L6r4FokhD-22" value="系统结构化建模" style="text;html=1;align=center;verticalAlign=middle;resizable=0;points=[];autosize=1;strokeColor=none;fillColor=none;" vertex="1" parent="1">
          <mxGeometry x="157" y="470" width="94" height="18" as="geometry" />
        </mxCell>
        <mxCell id="TMJ--TbqOV-L6r4FokhD-28" style="edgeStyle=orthogonalEdgeStyle;rounded=1;orthogonalLoop=1;jettySize=auto;html=1;" edge="1" parent="1" source="TMJ--TbqOV-L6r4FokhD-23" target="TMJ--TbqOV-L6r4FokhD-24">
          <mxGeometry relative="1" as="geometry" />
        </mxCell>
        <mxCell id="TMJ--TbqOV-L6r4FokhD-23" value="主板控制系统" style="html=1;" vertex="1" parent="1">
          <mxGeometry x="160" y="536" width="110" height="50" as="geometry" />
        </mxCell>
        <mxCell id="TMJ--TbqOV-L6r4FokhD-24" value="睡眠盒子控制系统" style="html=1;" vertex="1" parent="1">
          <mxGeometry x="301" y="536" width="110" height="50" as="geometry" />
        </mxCell>
        <mxCell id="TMJ--TbqOV-L6r4FokhD-26" value="智能床控制系统" style="text;html=1;align=center;verticalAlign=middle;resizable=0;points=[];autosize=1;strokeColor=none;fillColor=none;" vertex="1" parent="1">
          <mxGeometry x="157" y="502" width="94" height="18" as="geometry" />
        </mxCell>
      </root>
    </mxGraphModel>
  </diagram>
</mxfile>
